<svg width="102" height="115" viewBox="0 0 102 115" fill="none" xmlns="http://www.w3.org/2000/svg">
<g clip-path="url(#clip0_28_56)">
<path d="M101.374 33.6052C101.374 31.6893 100.964 29.9963 100.135 28.5434C99.3213 27.1146 98.1024 25.9171 96.4673 24.9702C82.9709 17.1881 69.4614 9.42984 55.9694 1.6398C52.332 -0.460128 48.8053 -0.383573 45.1948 1.7465C39.8229 4.91464 12.9272 20.3238 4.91266 24.9659C1.61203 26.8766 0.00594993 29.8008 0.0051566 33.6016C0 49.2519 0.0051566 64.9018 0 80.5525C0.000793323 82.4263 0.393092 84.0863 1.18523 85.5175C1.99957 86.9895 3.23557 88.2199 4.90829 89.1882C12.9232 93.8303 39.8225 109.238 45.1933 112.407C48.8053 114.538 52.332 114.615 55.9706 112.514C69.463 104.723 82.9733 96.9655 96.4717 89.1834C98.1444 88.2156 99.3804 86.9843 100.195 85.5135C100.986 84.0824 101.379 82.4223 101.38 80.5481C101.38 80.5481 101.38 49.2559 101.374 33.6052Z" fill="url(#paint0_linear_28_56)"/>
<path d="M50.8447 56.9245L1.18506 85.5175C1.99941 86.9895 3.2354 88.2199 4.90813 89.1882C12.9231 93.8303 39.8223 109.238 45.1931 112.407C48.8051 114.538 52.3318 114.615 55.9704 112.514C69.4628 104.723 82.9731 96.9655 96.4715 89.1834C98.1443 88.2156 99.3803 86.9843 100.195 85.5135L50.8447 56.9245Z" fill="url(#paint1_linear_28_56)"/>
<path d="M36.1362 65.394C39.0259 70.4388 44.4582 73.8414 50.6898 73.8414C56.9598 73.8414 62.423 70.3956 65.298 65.2969L50.8448 56.9245L36.1362 65.394Z" fill="url(#paint2_linear_28_56)"/>
<path d="M101.374 33.6052C101.373 31.6893 100.964 29.9964 100.135 28.5434L50.8447 56.9245L100.195 85.5135C100.986 84.0824 101.379 82.4223 101.379 80.5481C101.379 80.5481 101.379 49.2559 101.374 33.6052Z" fill="url(#paint3_linear_28_56)"/>
<path d="M98.661 58.9681H94.8046V62.8253H90.9475V58.9681H87.0915V55.1122H90.9475V51.2558H94.8046V55.1122H98.661V58.9681ZM84.5894 58.9681H80.7334V62.8253H76.8771V58.9681H73.0208V55.1122H76.8771V51.2558H80.7334V55.1122H84.5894V58.9681Z" fill="white"/>
<path d="M65.2981 65.2969C62.4231 70.3955 56.9599 73.8414 50.6899 73.8414C44.4583 73.8414 39.026 70.4388 36.1363 65.394C34.6847 62.8627 33.9223 59.9949 33.9253 57.0768C33.9253 47.8184 41.4314 40.3127 50.6899 40.3127C56.8814 40.3127 62.2851 43.6728 65.189 48.666L79.8421 40.2282C74.0179 30.1745 63.1442 23.4106 50.6899 23.4106C32.0959 23.4106 17.0232 38.4837 17.0232 57.0768C17.0232 63.1767 18.6459 68.897 21.4821 73.831C27.2916 83.938 38.1962 90.7435 50.6899 90.7435C63.2065 90.7435 74.1282 83.9106 79.9294 73.7739L65.2981 65.2969Z" fill="white"/>
</g>
<defs>
<linearGradient id="paint0_linear_28_56" x1="50.6898" y1="114.048" x2="50.6898" y2="0.106155" gradientUnits="userSpaceOnUse">
<stop stop-color="#062E59"/>
<stop offset="1" stop-color="#0D63BF"/>
</linearGradient>
<linearGradient id="paint1_linear_28_56" x1="50.6898" y1="114.048" x2="50.6898" y2="56.9245" gradientUnits="userSpaceOnUse">
<stop stop-color="#062E59"/>
<stop offset="1" stop-color="#0D63BF"/>
</linearGradient>
<linearGradient id="paint2_linear_28_56" x1="50.7171" y1="56.9245" x2="50.7171" y2="73.8414" gradientUnits="userSpaceOnUse">
<stop stop-color="#062E59"/>
<stop offset="1" stop-color="#0D63BF"/>
</linearGradient>
<linearGradient id="paint3_linear_28_56" x1="76.1121" y1="85.5135" x2="76.1121" y2="28.5434" gradientUnits="userSpaceOnUse">
<stop stop-color="#062E59"/>
<stop offset="1" stop-color="#0D63BF"/>
</linearGradient>
<clipPath id="clip0_28_56">
<rect width="101.545" height="114.25" fill="white"/>
</clipPath>
</defs>
</svg>