<svg width="110" height="110" viewBox="0 0 110 110" fill="none" xmlns="http://www.w3.org/2000/svg">
<path d="M0 0V110H110V0H0ZM57.4112 94.0989C55.7908 97.3923 52.6943 99.5575 49.1092 100.601C43.5979 101.867 38.3292 101.146 34.4066 98.7912C31.7811 97.1814 29.7319 94.7035 28.3436 91.8494C31.1343 90.1448 33.9181 88.4295 36.7088 86.7248C36.7827 86.7565 37.0006 87.1536 37.2958 87.6668C38.3608 89.4558 39.2817 90.7212 41.0918 91.6069C42.8703 92.2115 46.7683 92.6016 48.2761 89.4734C49.197 87.8847 48.9018 82.6687 48.9018 77.0134C48.9018 68.1244 48.944 59.383 48.944 50.385H59.2318C59.2318 59.8329 59.2846 69.3053 59.2318 78.7391C59.2529 84.521 59.7556 89.7792 57.4112 94.0989ZM100.095 91.1922C96.5206 103.427 76.5775 103.824 68.6129 95.7404C66.9293 93.8388 65.8749 92.8441 64.8696 90.6474C69.105 88.2116 69.105 88.2116 73.2244 85.8285C75.4633 89.2696 77.5336 91.1605 81.2558 91.9338C86.3066 92.5489 91.389 90.8161 90.2502 85.4525C89.0798 81.0695 79.9096 80.0045 73.6672 75.3192C67.33 71.0628 65.8468 60.7221 71.0522 54.8137C72.7885 52.6275 75.748 50.9966 78.8516 50.2128L82.0923 49.7945C88.3135 49.668 92.2044 51.3094 95.0585 54.5009C95.8528 55.3058 96.4995 56.174 97.7157 58.0579C94.4012 60.1703 94.4117 60.1492 89.6632 63.2247C88.6474 61.0385 86.9673 59.6677 85.1888 59.0737C82.4297 58.2372 78.9465 59.1475 78.226 62.0648C77.9764 62.9646 78.0291 63.8011 78.4263 65.2844C79.544 67.8361 83.2979 68.9433 86.6651 70.4898C96.359 74.4229 99.6313 78.6337 100.436 83.6529C101.209 87.9726 100.246 90.7739 100.102 91.1922H100.095Z" fill="url(#paint0_linear_28_34)"/>
<defs>
<linearGradient id="paint0_linear_28_34" x1="55" y1="0" x2="55.1557" y2="154.652" gradientUnits="userSpaceOnUse">
<stop stop-color="#E5C24B"/>
<stop offset="1" stop-color="#51461F"/>
</linearGradient>
</defs>
</svg>